<?xml version="1.0" encoding="utf-8"?>
<!-- Generator: Adobe Illustrator 20.0.0, SVG Export Plug-In . SVG Version: 6.00 Build 0)  -->
<svg version="1.1" id="Layer_1" xmlns="http://www.w3.org/2000/svg" xmlns:xlink="http://www.w3.org/1999/xlink" x="0px" y="0px"
	 viewBox="0 0 784 343" style="enable-background:new 0 0 784 343;" xml:space="preserve">
<style type="text/css">
	.st0{opacity:0.15;}
	.st1{fill:none;stroke:#000000;stroke-miterlimit:10;}
	.st2{fill:#467ABE;stroke:#FFFFFF;stroke-width:0.9783;stroke-miterlimit:10;}
	.st3{font-family:'.SFNSText';}
	.st4{font-size:8px;}
	.st5{fill:none;stroke:#3D3D3D;stroke-miterlimit:10;}
	.st6{opacity:0.75;fill:#16A974;stroke:#16A974;stroke-width:1.0868;stroke-miterlimit:10;}
</style>
<g class="st0">
	<path class="st1" d="M300,220.3c-34,0.2-90.8-9.8-116.7,31.4"/>
	<path class="st1" d="M208.3,118.8C213.5,52,275,33.5,295,35"/>
	<path class="st1" d="M412.4,285.8c-71.9-0.8-107.7-59.6-107.7-59.6"/>
	<path class="st1" d="M554.7,264.1C519,282,447.1,287.5,419.9,285.8"/>
	<path class="st1" d="M559.7,258.5c17.3-24,34.5-135.2,24.7-166.1"/>
	<circle class="st2" cx="183.3" cy="251.8" r="7.5"/>
	<text transform="matrix(1 0 0 1 158.6668 268.9754)" class="st3 st4">Another Term</text>
	<circle class="st2" cx="412.4" cy="285.8" r="7.5"/>
	<text transform="matrix(1 0 0 1 387.75 303)" class="st3 st4">Another Term</text>
	<circle class="st2" cx="295" cy="35" r="7.5"/>
	<text transform="matrix(1 0 0 1 270.3335 52.2159)" class="st3 st4">Another Term</text>
	<circle class="st2" cx="584.3" cy="92.4" r="7.5"/>
	<text transform="matrix(1 0 0 1 559.6668 81.6563)" class="st3 st4">Another Term</text>
</g>
<path class="st5" d="M554.7,264.1c-71.3,1.5-144.8-137.5-163.4-188.3"/>
<path class="st5" d="M299.8,221.7c45.5-0.7,102.7-76.4,91.5-145.9"/>
<path class="st5" d="M391.3,75.8c-47.4,47.4-182.9,42.9-182.9,42.9"/>
<circle class="st6" cx="391.3" cy="75.8" r="15"/>
<circle class="st2" cx="391.3" cy="75.8" r="7.5"/>
<text transform="matrix(1 0 0 1 411.6668 78.3332)" class="st3 st4">Quantum Superposition</text>
<circle class="st2" cx="208.3" cy="118.8" r="7.5"/>
<text transform="matrix(1 0 0 1 183.6668 136)" class="st3 st4">Another Term</text>
<circle class="st2" cx="300" cy="220.3" r="7.5"/>
<text transform="matrix(1 0 0 1 275.3334 207.5589)" class="st3 st4">Another Term</text>
<circle class="st2" cx="554.7" cy="264.1" r="7.5"/>
<text transform="matrix(1 0 0 1 536.3334 281.3337)" class="st3 st4">Another Term</text>
<path d="M300,220.3"/>
</svg>
